<svg width="81" height="47" viewBox="0 0 81 47" fill="none" xmlns="http://www.w3.org/2000/svg">
<path d="M0.0454545 47V0.454544H9.88636V20.9773H10.5L27.25 0.454544H39.0455L21.7727 21.2955L39.25 47H27.4773L14.7273 27.8636L9.88636 33.7727V47H0.0454545ZM44.1705 47V0.454544H62.8068C66.2311 0.454544 69.0871 0.96212 71.375 1.97727C73.6629 2.99242 75.3826 4.40151 76.5341 6.20454C77.6856 7.99242 78.2614 10.053 78.2614 12.3864C78.2614 14.2045 77.8977 15.803 77.1705 17.1818C76.4432 18.5455 75.4432 19.6667 74.1705 20.5455C72.9129 21.4091 71.4735 22.0227 69.8523 22.3864V22.8409C71.625 22.9167 73.2841 23.4167 74.8295 24.3409C76.3902 25.2652 77.6553 26.5606 78.625 28.2273C79.5947 29.8788 80.0795 31.8485 80.0795 34.1364C80.0795 36.6061 79.4659 38.8106 78.2386 40.75C77.0265 42.6742 75.2311 44.197 72.8523 45.3182C70.4735 46.4394 67.5417 47 64.0568 47H44.1705ZM54.0114 38.9545H62.0341C64.7765 38.9545 66.7765 38.4318 68.0341 37.3864C69.2917 36.3258 69.9205 34.9167 69.9205 33.1591C69.9205 31.8712 69.6098 30.7348 68.9886 29.75C68.3674 28.7652 67.4811 27.9924 66.3295 27.4318C65.1932 26.8712 63.8371 26.5909 62.2614 26.5909H54.0114V38.9545ZM54.0114 19.9318H61.3068C62.6553 19.9318 63.8523 19.697 64.8977 19.2273C65.9583 18.7424 66.7917 18.0606 67.3977 17.1818C68.0189 16.303 68.3295 15.25 68.3295 14.0227C68.3295 12.3409 67.7311 10.9848 66.5341 9.95454C65.3523 8.92424 63.6705 8.40909 61.4886 8.40909H54.0114V19.9318Z" fill="#3C415C"/>
</svg>
